<svg width="20" height="21" viewBox="0 0 20 21" fill="none" xmlns="http://www.w3.org/2000/svg">
<path d="M10 0.141113C12.717 0.141113 13.056 0.151113 14.122 0.201113C15.187 0.251113 15.912 0.418113 16.55 0.666113C17.21 0.920113 17.766 1.26411 18.322 1.81911C18.8305 2.31901 19.224 2.9237 19.475 3.59111C19.722 4.22811 19.89 4.95411 19.94 6.01911C19.987 7.08511 20 7.42411 20 10.1411C20 12.8581 19.99 13.1971 19.94 14.2631C19.89 15.3281 19.722 16.0531 19.475 16.6911C19.2247 17.3589 18.8311 17.9637 18.322 18.4631C17.822 18.9714 17.2173 19.3649 16.55 19.6161C15.913 19.8631 15.187 20.0311 14.122 20.0811C13.056 20.1281 12.717 20.1411 10 20.1411C7.283 20.1411 6.944 20.1311 5.878 20.0811C4.813 20.0311 4.088 19.8631 3.45 19.6161C2.78233 19.3656 2.17753 18.9721 1.678 18.4631C1.16941 17.9633 0.775931 17.3586 0.525 16.6911C0.277 16.0541 0.11 15.3281 0.0599999 14.2631C0.0129999 13.1971 0 12.8581 0 10.1411C0 7.42411 0.00999994 7.08511 0.0599999 6.01911C0.11 4.95311 0.277 4.22911 0.525 3.59111C0.775236 2.92329 1.1688 2.31843 1.678 1.81911C2.17767 1.31034 2.78243 0.916843 3.45 0.666113C4.088 0.418113 4.812 0.251113 5.878 0.201113C6.944 0.154113 7.283 0.141113 10 0.141113ZM10 5.14111C8.67392 5.14111 7.40215 5.6679 6.46447 6.60558C5.52678 7.54326 5 8.81503 5 10.1411C5 11.4672 5.52678 12.739 6.46447 13.6766C7.40215 14.6143 8.67392 15.1411 10 15.1411C11.3261 15.1411 12.5979 14.6143 13.5355 13.6766C14.4732 12.739 15 11.4672 15 10.1411C15 8.81503 14.4732 7.54326 13.5355 6.60558C12.5979 5.6679 11.3261 5.14111 10 5.14111ZM16.5 4.89111C16.5 4.55959 16.3683 4.24165 16.1339 4.00723C15.8995 3.77281 15.5815 3.64111 15.25 3.64111C14.9185 3.64111 14.6005 3.77281 14.3661 4.00723C14.1317 4.24165 14 4.55959 14 4.89111C14 5.22263 14.1317 5.54058 14.3661 5.775C14.6005 6.00942 14.9185 6.14111 15.25 6.14111C15.5815 6.14111 15.8995 6.00942 16.1339 5.775C16.3683 5.54058 16.5 5.22263 16.5 4.89111ZM10 7.14111C10.7956 7.14111 11.5587 7.45718 12.1213 8.01979C12.6839 8.5824 13 9.34546 13 10.1411C13 10.9368 12.6839 11.6998 12.1213 12.2624C11.5587 12.825 10.7956 13.1411 10 13.1411C9.20435 13.1411 8.44129 12.825 7.87868 12.2624C7.31607 11.6998 7 10.9368 7 10.1411C7 9.34546 7.31607 8.5824 7.87868 8.01979C8.44129 7.45718 9.20435 7.14111 10 7.14111Z" fill="#494949"/>
</svg>
