<svg xmlns="http://www.w3.org/2000/svg" viewBox="0 0 48 48" id="tea"><path d="M12 10c.553 0 1-.448 1-1v-.586c0-.645.251-1.251.707-1.707.834-.833 1.293-1.942 1.293-3.122v-.586c0-.552-.447-1-1-1s-1 .448-1 1v.586c0 .645-.251 1.251-.707 1.707-.834.833-1.293 1.942-1.293 3.122v.586c0 .552.447 1 1 1zM20 10c.553 0 1-.448 1-1v-.586c0-.645.251-1.251.707-1.707.834-.833 1.293-1.942 1.293-3.122v-.586c0-.552-.447-1-1-1s-1 .448-1 1v.586c0 .645-.251 1.251-.707 1.707-.834.833-1.293 1.942-1.293 3.122v.586c0 .552.447 1 1 1zM28 10c.553 0 1-.448 1-1v-.586c0-.645.251-1.251.707-1.707.834-.833 1.293-1.942 1.293-3.122v-.586c0-.552-.447-1-1-1s-1 .448-1 1v.586c0 .645-.251 1.251-.707 1.707-.834.833-1.293 1.942-1.293 3.122v.586c0 .552.447 1 1 1zM35.5 33.839c3.959-.71 10.5-3.921 10.5-9.339 0-3.584-2.916-6.5-6.5-6.5-.505 0-1.01.062-1.5.18v-2.18c0-1.654-1.346-3-3-3H7c-1.654 0-3 1.346-3 3v5c0 6.189 1.669 12.268 4.826 17.578.088.148.189.286.291.422h-5.117c-1.103 0-2 .897-2 2 0 2.757 2.243 5 5 5h28c2.757 0 5-2.243 5-5 0-1.103-.897-2-2-2h-5.117c.102-.136.203-.274.291-.422.904-1.52 1.671-3.109 2.326-4.739zm4-13.839c2.481 0 4.5 2.019 4.5 4.5 0 3.712-4.421 6.188-7.69 7.102 1.104-3.41 1.69-6.984 1.69-10.602v-.736c.479-.173.981-.264 1.5-.264zm-25.5 2.202l2 1.333v4.465h-4v-4.465l2-1.333zm21 21.798H7c-1.654 0-3-1.346-3-3h34c0 1.654-1.346 3-3 3zm-21.882-5c-1.058 0-2.044-.553-2.573-1.444-2.974-5.001-4.545-10.726-4.545-16.556v-5c0-.551.448-1 1-1h6v5.465l-2.109 1.406c-.558.372-.891.994-.891 1.664v4.465c0 1.103.897 2 2 2h4c1.103 0 2-.897 2-2v-4.465c0-.67-.333-1.292-.891-1.664l-2.109-1.406v-5.465h20c.552 0 1 .449 1 1v5c0 5.83-1.571 11.555-4.545 16.556-.529.891-1.516 1.444-2.573 1.444h-15.764z" fill="#ffffff" class="color000000 svgShape"></path></svg>