<?xml version="1.0" encoding="UTF-8" standalone="no"?>
<svg
   width="325"
   height="337"
   viewBox="0 0 325 337"
   fill="none"
   version="1.1"
   id="svg10"
   sodipodi:docname="cup-fav.svg"
   inkscape:export-filename="cup-fav.png"
   inkscape:export-xdpi="14.769231"
   inkscape:export-ydpi="14.769231"
   xmlns:inkscape="http://www.inkscape.org/namespaces/inkscape"
   xmlns:sodipodi="http://sodipodi.sourceforge.net/DTD/sodipodi-0.dtd"
   xmlns:xlink="http://www.w3.org/1999/xlink"
   xmlns="http://www.w3.org/2000/svg"
   xmlns:svg="http://www.w3.org/2000/svg">
  <defs
     id="defs14">
    <linearGradient
       inkscape:collect="always"
       id="linearGradient352">
      <stop
         style="stop-color:#ff8938;stop-opacity:1"
         offset="0"
         id="stop348" />
      <stop
         style="stop-color:#ff0000;stop-opacity:1"
         offset="1"
         id="stop350" />
    </linearGradient>
    <linearGradient
       inkscape:collect="always"
       id="linearGradient346">
      <stop
         style="stop-color:#ff8938;stop-opacity:1"
         offset="0"
         id="stop342" />
      <stop
         style="stop-color:#ff0000;stop-opacity:1"
         offset="1"
         id="stop344" />
    </linearGradient>
    <linearGradient
       inkscape:collect="always"
       id="linearGradient340">
      <stop
         style="stop-color:#ff8938;stop-opacity:1"
         offset="0"
         id="stop336" />
      <stop
         style="stop-color:#ff0000;stop-opacity:1"
         offset="1"
         id="stop338" />
    </linearGradient>
    <linearGradient
       inkscape:collect="always"
       id="linearGradient326">
      <stop
         style="stop-color:#ff8938;stop-opacity:1"
         offset="0"
         id="stop322" />
      <stop
         style="stop-color:#ff0000;stop-opacity:1"
         offset="1"
         id="stop324" />
    </linearGradient>
    <linearGradient
       inkscape:collect="always"
       xlink:href="#linearGradient326"
       id="linearGradient328"
       x1="-25.70339"
       y1="159.93221"
       x2="356.99152"
       y2="159.93221"
       gradientUnits="userSpaceOnUse" />
    <linearGradient
       inkscape:collect="always"
       xlink:href="#linearGradient352"
       id="linearGradient330"
       x1="-25.70339"
       y1="159.93221"
       x2="356.99152"
       y2="159.93221"
       gradientUnits="userSpaceOnUse" />
    <linearGradient
       inkscape:collect="always"
       xlink:href="#linearGradient346"
       id="linearGradient332"
       x1="-25.70339"
       y1="159.93221"
       x2="356.99152"
       y2="159.93221"
       gradientUnits="userSpaceOnUse" />
    <linearGradient
       inkscape:collect="always"
       xlink:href="#linearGradient340"
       id="linearGradient334"
       x1="-25.70339"
       y1="159.93221"
       x2="356.99152"
       y2="159.93221"
       gradientUnits="userSpaceOnUse" />
  </defs>
  <sodipodi:namedview
     id="namedview12"
     pagecolor="#ffffff"
     bordercolor="#000000"
     borderopacity="0.25"
     inkscape:showpageshadow="2"
     inkscape:pageopacity="0.0"
     inkscape:pagecheckerboard="0"
     inkscape:deskcolor="#d1d1d1"
     showgrid="false" />
  <path
     d="M 290.168,145.624 37.9314,182.031 C 27.0095,183.64 15.9401,179.984 8.5604,171.943 3.24705,166.094 0,158.345 0,149.864 0,132.319 13.8738,117.99 31.4373,117.112 c 1.1808,0 2.2139,-0.146 3.3947,-0.292 L 287.069,80.5589 c 10.921,-1.6084 21.991,2.047 29.371,10.0887 5.313,5.8486 8.56,13.5984 8.56,22.0784 0,17.546 -13.874,31.875 -31.437,32.752 -1.033,-0.146 -2.214,0 -3.395,0.146 z"
     fill="white"
     id="path2"
     style="fill:url(#linearGradient328);fill-opacity:1" />
  <path
     d="M 263.896,231.89 61.1035,261.133 c -18.3015,0 -33.0608,-14.621 -33.0608,-32.752 0,-18.13 14.7593,-32.752 33.0608,-32.752 L 263.896,166.387 c 18.302,0 33.061,14.621 33.061,32.752 0,17.984 -14.759,32.751 -33.061,32.751 z"
     fill="white"
     id="path4"
     style="fill:url(#linearGradient330);fill-opacity:1" />
  <path
     d="m 210.32,321.52 -95.788,14.621 c -18.3013,0 -33.0606,-14.621 -33.0606,-32.752 0,-18.13 14.7593,-32.752 33.0606,-32.752 l 95.788,-14.621 c 18.302,0 33.061,14.621 33.061,32.752 0.148,18.13 -14.759,32.752 -33.061,32.752 z"
     fill="white"
     id="path6"
     style="fill:url(#linearGradient332);fill-opacity:1" />
  <path
     d="M 195.561,76.9035 V 32.8931 c 0,-18.1306 -14.759,-32.751987 -33.061,-32.751987 -18.302,0 -33.061,14.621387 -33.061,32.751987 v 53.5143 z"
     fill="white"
     id="path8"
     style="fill:url(#linearGradient334);fill-opacity:1" />
</svg>
